# Tiled2Unity generated file. Do not modify by hand.
# Wavefront file for 'MapX3_mesh_0008.obj'

# Vertices (Count = 136)
v -3008 -608 0
v -3040 -608 0
v -3040 -576 0
v -3008 -576 0
v -2336 -672 0
v -2368 -672 0
v -2368 -640 0
v -2336 -640 0
v -2432 -672 0
v -2464 -672 0
v -2464 -640 0
v -2432 -640 0
v -2368 -768 0
v -2400 -768 0
v -2400 -736 0
v -2368 -736 0
v -2432 -768 0
v -2464 -768 0
v -2464 -736 0
v -2432 -736 0
v -2912 -896 0
v -2944 -896 0
v -2944 -864 0
v -2912 -864 0
v -2048 -1056 0
v -2080 -1056 0
v -2080 -1024 0
v -2048 -1024 0
v -1728 -1184 0
v -1760 -1184 0
v -1760 -1152 0
v -1728 -1152 0
v -2272 -1184 0
v -2304 -1184 0
v -2304 -1152 0
v -2272 -1152 0
v -2336 -1184 0
v -2368 -1184 0
v -2368 -1152 0
v -2336 -1152 0
v -2848 -1184 0
v -2880 -1184 0
v -2880 -1152 0
v -2848 -1152 0
v -3392 -1184 0
v -3424 -1184 0
v -3424 -1152 0
v -3392 -1152 0
v -2912 -1248 0
v -2944 -1248 0
v -2944 -1216 0
v -2912 -1216 0
v -3456 -1248 0
v -3488 -1248 0
v -3488 -1216 0
v -3456 -1216 0
v -1824 -1280 0
v -1856 -1280 0
v -1856 -1248 0
v -1824 -1248 0
v -2048 -1280 0
v -2080 -1280 0
v -2080 -1248 0
v -2048 -1248 0
v -1728 -1344 0
v -1760 -1344 0
v -1760 -1312 0
v -1728 -1312 0
v -1824 -1376 0
v -1856 -1376 0
v -1856 -1344 0
v -1824 -1344 0
v -1888 -1376 0
v -1920 -1376 0
v -1920 -1344 0
v -1888 -1344 0
v -1952 -1376 0
v -1984 -1376 0
v -1984 -1344 0
v -1952 -1344 0
v -2016 -1376 0
v -2048 -1376 0
v -2048 -1344 0
v -2016 -1344 0
v -2080 -1376 0
v -2112 -1376 0
v -2112 -1344 0
v -2080 -1344 0
v -2112 -1376 0
v -2144 -1376 0
v -2144 -1344 0
v -2112 -1344 0
v -1728 -1440 0
v -1760 -1440 0
v -1760 -1408 0
v -1728 -1408 0
v -1792 -1440 0
v -1824 -1440 0
v -1824 -1408 0
v -1792 -1408 0
v -3296 -1504 0
v -3328 -1504 0
v -3328 -1472 0
v -3296 -1472 0
v -3360 -1504 0
v -3392 -1504 0
v -3392 -1472 0
v -3360 -1472 0
v -3936 -1792 0
v -3968 -1792 0
v -3968 -1760 0
v -3936 -1760 0
v -3808 -1888 0
v -3840 -1888 0
v -3840 -1856 0
v -3808 -1856 0
v -2112 -1984 0
v -2144 -1984 0
v -2144 -1952 0
v -2112 -1952 0
v -3872 -2016 0
v -3904 -2016 0
v -3904 -1984 0
v -3872 -1984 0
v -3936 -2016 0
v -3968 -2016 0
v -3968 -1984 0
v -3936 -1984 0
v -4000 -2016 0
v -4032 -2016 0
v -4032 -1984 0
v -4000 -1984 0
v -4064 -2016 0
v -4096 -2016 0
v -4096 -1984 0
v -4064 -1984 0

# Texture cooridinates (Count = 13)
vt 0.0625 0.25
vt 0.09375 0.25
vt 0.09375 0.2916667
vt 0.0625 0.2916667
vt 0.0625 0.4583333
vt 0.09375 0.4583333
vt 0.09375 0.5
vt 0.0625 0.5
vt 0.125 0.4583333
vt 0.125 0.5
vt 0.0625 0.4166667
vt 0.09375 0.4166667
vt 0.125 0.4166667

# Normal
vn 0 0 -1

# Mesh description
g MapX3_mesh_0008

# Faces
f 1/1/1 2/2/1 3/3/1 4/4/1
f 5/5/1 6/6/1 7/7/1 8/8/1
f 9/6/1 10/9/1 11/10/1 12/7/1
f 13/1/1 14/2/1 15/3/1 16/4/1
f 17/1/1 18/2/1 19/3/1 20/4/1
f 21/1/1 22/2/1 23/3/1 24/4/1
f 25/11/1 26/12/1 27/6/1 28/5/1
f 29/11/1 30/12/1 31/6/1 32/5/1
f 33/12/1 34/13/1 35/9/1 36/6/1
f 37/1/1 38/2/1 39/3/1 40/4/1
f 41/11/1 42/12/1 43/6/1 44/5/1
f 45/11/1 46/12/1 47/6/1 48/5/1
f 49/1/1 50/2/1 51/3/1 52/4/1
f 53/1/1 54/2/1 55/3/1 56/4/1
f 57/6/1 58/9/1 59/10/1 60/7/1
f 61/5/1 62/6/1 63/7/1 64/8/1
f 65/5/1 66/6/1 67/7/1 68/8/1
f 69/12/1 70/13/1 71/9/1 72/6/1
f 73/1/1 74/2/1 75/3/1 76/4/1
f 77/1/1 78/2/1 79/3/1 80/4/1
f 81/1/1 82/2/1 83/3/1 84/4/1
f 85/1/1 86/2/1 87/3/1 88/4/1
f 89/11/1 90/12/1 91/6/1 92/5/1
f 93/1/1 94/2/1 95/3/1 96/4/1
f 97/1/1 98/2/1 99/3/1 100/4/1
f 101/1/1 102/2/1 103/3/1 104/4/1
f 105/1/1 106/2/1 107/3/1 108/4/1
f 109/5/1 110/6/1 111/7/1 112/8/1
f 113/11/1 114/12/1 115/6/1 116/5/1
f 117/5/1 118/6/1 119/7/1 120/8/1
f 121/1/1 122/2/1 123/3/1 124/4/1
f 125/1/1 126/2/1 127/3/1 128/4/1
f 129/1/1 130/2/1 131/3/1 132/4/1
f 133/1/1 134/2/1 135/3/1 136/4/1

