# Tiled2Unity generated file. Do not modify by hand.
# Wavefront file for 'MapX3_mesh_0007.obj'

# Vertices (Count = 280)
v -3040 -512 0
v -3072 -512 0
v -3072 -480 0
v -3040 -480 0
v -3040 -544 0
v -3072 -544 0
v -3072 -512 0
v -3040 -512 0
v -3040 -576 0
v -3072 -576 0
v -3072 -544 0
v -3040 -544 0
v -3040 -608 0
v -3072 -608 0
v -3072 -576 0
v -3040 -576 0
v -2432 -640 0
v -2464 -640 0
v -2464 -608 0
v -2432 -608 0
v -2464 -672 0
v -2496 -672 0
v -2496 -640 0
v -2464 -640 0
v -2464 -704 0
v -2496 -704 0
v -2496 -672 0
v -2464 -672 0
v -2464 -736 0
v -2496 -736 0
v -2496 -704 0
v -2464 -704 0
v -2464 -768 0
v -2496 -768 0
v -2496 -736 0
v -2464 -736 0
v -2944 -832 0
v -2976 -832 0
v -2976 -800 0
v -2944 -800 0
v -2944 -864 0
v -2976 -864 0
v -2976 -832 0
v -2944 -832 0
v -2944 -896 0
v -2976 -896 0
v -2976 -864 0
v -2944 -864 0
v -2400 -960 0
v -2432 -960 0
v -2432 -928 0
v -2400 -928 0
v -2400 -992 0
v -2432 -992 0
v -2432 -960 0
v -2400 -960 0
v -2400 -1024 0
v -2432 -1024 0
v -2432 -992 0
v -2400 -992 0
v -3488 -1024 0
v -3520 -1024 0
v -3520 -992 0
v -3488 -992 0
v -1824 -1056 0
v -1856 -1056 0
v -1856 -1024 0
v -1824 -1024 0
v -2400 -1056 0
v -2432 -1056 0
v -2432 -1024 0
v -2400 -1024 0
v -3488 -1056 0
v -3520 -1056 0
v -3520 -1024 0
v -3488 -1024 0
v -1824 -1088 0
v -1856 -1088 0
v -1856 -1056 0
v -1824 -1056 0
v -2400 -1088 0
v -2432 -1088 0
v -2432 -1056 0
v -2400 -1056 0
v -3488 -1088 0
v -3520 -1088 0
v -3520 -1056 0
v -3488 -1056 0
v -1824 -1120 0
v -1856 -1120 0
v -1856 -1088 0
v -1824 -1088 0
v -2400 -1120 0
v -2432 -1120 0
v -2432 -1088 0
v -2400 -1088 0
v -2944 -1120 0
v -2976 -1120 0
v -2976 -1088 0
v -2944 -1088 0
v -3488 -1120 0
v -3520 -1120 0
v -3520 -1088 0
v -3488 -1088 0
v -1824 -1152 0
v -1856 -1152 0
v -1856 -1120 0
v -1824 -1120 0
v -2400 -1152 0
v -2432 -1152 0
v -2432 -1120 0
v -2400 -1120 0
v -2944 -1152 0
v -2976 -1152 0
v -2976 -1120 0
v -2944 -1120 0
v -3488 -1152 0
v -3520 -1152 0
v -3520 -1120 0
v -3488 -1120 0
v -1824 -1184 0
v -1856 -1184 0
v -1856 -1152 0
v -1824 -1152 0
v -2400 -1184 0
v -2432 -1184 0
v -2432 -1152 0
v -2400 -1152 0
v -2944 -1184 0
v -2976 -1184 0
v -2976 -1152 0
v -2944 -1152 0
v -3488 -1184 0
v -3520 -1184 0
v -3520 -1152 0
v -3488 -1152 0
v -1824 -1216 0
v -1856 -1216 0
v -1856 -1184 0
v -1824 -1184 0
v -2272 -1216 0
v -2304 -1216 0
v -2304 -1184 0
v -2272 -1184 0
v -2944 -1216 0
v -2976 -1216 0
v -2976 -1184 0
v -2944 -1184 0
v -3488 -1216 0
v -3520 -1216 0
v -3520 -1184 0
v -3488 -1184 0
v -1824 -1248 0
v -1856 -1248 0
v -1856 -1216 0
v -1824 -1216 0
v -2272 -1248 0
v -2304 -1248 0
v -2304 -1216 0
v -2272 -1216 0
v -2944 -1248 0
v -2976 -1248 0
v -2976 -1216 0
v -2944 -1216 0
v -3488 -1248 0
v -3520 -1248 0
v -3520 -1216 0
v -3488 -1216 0
v -2272 -1280 0
v -2304 -1280 0
v -2304 -1248 0
v -2272 -1248 0
v -2272 -1312 0
v -2304 -1312 0
v -2304 -1280 0
v -2272 -1280 0
v -2272 -1344 0
v -2304 -1344 0
v -2304 -1312 0
v -2272 -1312 0
v -2272 -1376 0
v -2304 -1376 0
v -2304 -1344 0
v -2272 -1344 0
v -1824 -1408 0
v -1856 -1408 0
v -1856 -1376 0
v -1824 -1376 0
v -2272 -1408 0
v -2304 -1408 0
v -2304 -1376 0
v -2272 -1376 0
v -2528 -1408 0
v -2560 -1408 0
v -2560 -1376 0
v -2528 -1376 0
v -3392 -1408 0
v -3424 -1408 0
v -3424 -1376 0
v -3392 -1376 0
v -1824 -1440 0
v -1856 -1440 0
v -1856 -1408 0
v -1824 -1408 0
v -2272 -1440 0
v -2304 -1440 0
v -2304 -1408 0
v -2272 -1408 0
v -2528 -1440 0
v -2560 -1440 0
v -2560 -1408 0
v -2528 -1408 0
v -3392 -1440 0
v -3424 -1440 0
v -3424 -1408 0
v -3392 -1408 0
v -2272 -1472 0
v -2304 -1472 0
v -2304 -1440 0
v -2272 -1440 0
v -2528 -1472 0
v -2560 -1472 0
v -2560 -1440 0
v -2528 -1440 0
v -3392 -1472 0
v -3424 -1472 0
v -3424 -1440 0
v -3392 -1440 0
v -2272 -1504 0
v -2304 -1504 0
v -2304 -1472 0
v -2272 -1472 0
v -2528 -1504 0
v -2560 -1504 0
v -2560 -1472 0
v -2528 -1472 0
v -3392 -1504 0
v -3424 -1504 0
v -3424 -1472 0
v -3392 -1472 0
v -2272 -1536 0
v -2304 -1536 0
v -2304 -1504 0
v -2272 -1504 0
v -2272 -1568 0
v -2304 -1568 0
v -2304 -1536 0
v -2272 -1536 0
v -2272 -1600 0
v -2304 -1600 0
v -2304 -1568 0
v -2272 -1568 0
v -2272 -1856 0
v -2304 -1856 0
v -2304 -1824 0
v -2272 -1824 0
v -2272 -1888 0
v -2304 -1888 0
v -2304 -1856 0
v -2272 -1856 0
v -2272 -1920 0
v -2304 -1920 0
v -2304 -1888 0
v -2272 -1888 0
v -2272 -1952 0
v -2304 -1952 0
v -2304 -1920 0
v -2272 -1920 0
v -2272 -1984 0
v -2304 -1984 0
v -2304 -1952 0
v -2272 -1952 0
v -2272 -2016 0
v -2304 -2016 0
v -2304 -1984 0
v -2272 -1984 0
v -2272 -2048 0
v -2304 -2048 0
v -2304 -2016 0
v -2272 -2016 0

# Texture cooridinates (Count = 12)
vt 0.21875 0.375
vt 0.25 0.375
vt 0.25 0.4166667
vt 0.21875 0.4166667
vt 0.21875 0.3333333
vt 0.25 0.3333333
vt 0.21875 0.2916667
vt 0.25 0.2916667
vt 0.09375 0.25
vt 0.125 0.25
vt 0.125 0.2916667
vt 0.09375 0.2916667

# Normal
vn 0 0 -1

# Mesh description
g MapX3_mesh_0007

# Faces
f 1/1/1 2/2/1 3/3/1 4/4/1
f 5/5/1 6/6/1 7/2/1 8/1/1
f 9/7/1 10/8/1 11/6/1 12/5/1
f 13/9/1 14/10/1 15/11/1 16/12/1
f 17/1/1 18/2/1 19/3/1 20/4/1
f 21/1/1 22/2/1 23/3/1 24/4/1
f 25/5/1 26/6/1 27/2/1 28/1/1
f 29/7/1 30/8/1 31/6/1 32/5/1
f 33/9/1 34/10/1 35/11/1 36/12/1
f 37/1/1 38/2/1 39/3/1 40/4/1
f 41/7/1 42/8/1 43/6/1 44/5/1
f 45/9/1 46/10/1 47/11/1 48/12/1
f 49/1/1 50/2/1 51/3/1 52/4/1
f 53/5/1 54/6/1 55/2/1 56/1/1
f 57/7/1 58/8/1 59/6/1 60/5/1
f 61/1/1 62/2/1 63/3/1 64/4/1
f 65/1/1 66/2/1 67/3/1 68/4/1
f 69/5/1 70/6/1 71/2/1 72/1/1
f 73/5/1 74/6/1 75/2/1 76/1/1
f 77/5/1 78/6/1 79/2/1 80/1/1
f 81/7/1 82/8/1 83/6/1 84/5/1
f 85/7/1 86/8/1 87/6/1 88/5/1
f 89/7/1 90/8/1 91/6/1 92/5/1
f 93/5/1 94/6/1 95/2/1 96/1/1
f 97/1/1 98/2/1 99/3/1 100/4/1
f 101/5/1 102/6/1 103/2/1 104/1/1
f 105/5/1 106/6/1 107/2/1 108/1/1
f 109/7/1 110/8/1 111/6/1 112/5/1
f 113/5/1 114/6/1 115/2/1 116/1/1
f 117/7/1 118/8/1 119/6/1 120/5/1
f 121/7/1 122/8/1 123/6/1 124/5/1
f 125/9/1 126/10/1 127/11/1 128/12/1
f 129/7/1 130/8/1 131/6/1 132/5/1
f 133/5/1 134/6/1 135/2/1 136/1/1
f 137/5/1 138/6/1 139/2/1 140/1/1
f 141/7/1 142/8/1 143/6/1 144/5/1
f 145/7/1 146/8/1 147/6/1 148/5/1
f 149/7/1 150/8/1 151/6/1 152/5/1
f 153/7/1 154/8/1 155/6/1 156/5/1
f 157/5/1 158/6/1 159/2/1 160/1/1
f 161/9/1 162/10/1 163/11/1 164/12/1
f 165/9/1 166/10/1 167/11/1 168/12/1
f 169/7/1 170/8/1 171/6/1 172/5/1
f 173/5/1 174/6/1 175/2/1 176/1/1
f 177/7/1 178/8/1 179/6/1 180/5/1
f 181/5/1 182/6/1 183/2/1 184/1/1
f 185/7/1 186/8/1 187/6/1 188/5/1
f 189/7/1 190/8/1 191/6/1 192/5/1
f 193/1/1 194/2/1 195/3/1 196/4/1
f 197/1/1 198/2/1 199/3/1 200/4/1
f 201/9/1 202/10/1 203/11/1 204/12/1
f 205/5/1 206/6/1 207/2/1 208/1/1
f 209/5/1 210/6/1 211/2/1 212/1/1
f 213/5/1 214/6/1 215/2/1 216/1/1
f 217/7/1 218/8/1 219/6/1 220/5/1
f 221/7/1 222/8/1 223/6/1 224/5/1
f 225/7/1 226/8/1 227/6/1 228/5/1
f 229/5/1 230/6/1 231/2/1 232/1/1
f 233/9/1 234/10/1 235/11/1 236/12/1
f 237/9/1 238/10/1 239/11/1 240/12/1
f 241/7/1 242/8/1 243/6/1 244/5/1
f 245/5/1 246/6/1 247/2/1 248/1/1
f 249/7/1 250/8/1 251/6/1 252/5/1
f 253/5/1 254/6/1 255/2/1 256/1/1
f 257/7/1 258/8/1 259/6/1 260/5/1
f 261/5/1 262/6/1 263/2/1 264/1/1
f 265/7/1 266/8/1 267/6/1 268/5/1
f 269/5/1 270/6/1 271/2/1 272/1/1
f 273/7/1 274/8/1 275/6/1 276/5/1
f 277/5/1 278/6/1 279/2/1 280/1/1

