# Tiled2Unity generated file. Do not modify by hand.
# Wavefront file for 'MapX3_mesh_0012.obj'

# Vertices (Count = 100)
v -2112 -1632 0
v -2144 -1632 0
v -2144 -1600 0
v -2112 -1600 0
v -2144 -1664 0
v -2176 -1664 0
v -2176 -1632 0
v -2144 -1632 0
v -2176 -1664 0
v -2208 -1664 0
v -2208 -1632 0
v -2176 -1632 0
v -2208 -1664 0
v -2240 -1664 0
v -2240 -1632 0
v -2208 -1632 0
v -2240 -1664 0
v -2272 -1664 0
v -2272 -1632 0
v -2240 -1632 0
v -2144 -1696 0
v -2176 -1696 0
v -2176 -1664 0
v -2144 -1664 0
v -2176 -1696 0
v -2208 -1696 0
v -2208 -1664 0
v -2176 -1664 0
v -2208 -1696 0
v -2240 -1696 0
v -2240 -1664 0
v -2208 -1664 0
v -2240 -1696 0
v -2272 -1696 0
v -2272 -1664 0
v -2240 -1664 0
v -2144 -1728 0
v -2176 -1728 0
v -2176 -1696 0
v -2144 -1696 0
v -2176 -1728 0
v -2208 -1728 0
v -2208 -1696 0
v -2176 -1696 0
v -2208 -1728 0
v -2240 -1728 0
v -2240 -1696 0
v -2208 -1696 0
v -2240 -1728 0
v -2272 -1728 0
v -2272 -1696 0
v -2240 -1696 0
v -2144 -1760 0
v -2176 -1760 0
v -2176 -1728 0
v -2144 -1728 0
v -2176 -1760 0
v -2208 -1760 0
v -2208 -1728 0
v -2176 -1728 0
v -2208 -1760 0
v -2240 -1760 0
v -2240 -1728 0
v -2208 -1728 0
v -2240 -1760 0
v -2272 -1760 0
v -2272 -1728 0
v -2240 -1728 0
v -2144 -1792 0
v -2176 -1792 0
v -2176 -1760 0
v -2144 -1760 0
v -2176 -1792 0
v -2208 -1792 0
v -2208 -1760 0
v -2176 -1760 0
v -2208 -1792 0
v -2240 -1792 0
v -2240 -1760 0
v -2208 -1760 0
v -2240 -1792 0
v -2272 -1792 0
v -2272 -1760 0
v -2240 -1760 0
v -2144 -1824 0
v -2176 -1824 0
v -2176 -1792 0
v -2144 -1792 0
v -2176 -1824 0
v -2208 -1824 0
v -2208 -1792 0
v -2176 -1792 0
v -2208 -1824 0
v -2240 -1824 0
v -2240 -1792 0
v -2208 -1792 0
v -2240 -1824 0
v -2272 -1824 0
v -2272 -1792 0
v -2240 -1792 0

# Texture cooridinates (Count = 16)
vt 0.25 0.25
vt 0.28125 0.25
vt 0.28125 0.2916667
vt 0.25 0.2916667
vt 0.40625 0.375
vt 0.4375 0.375
vt 0.4375 0.4166667
vt 0.40625 0.4166667
vt 0.46875 0.375
vt 0.46875 0.4166667
vt 0.40625 0.3333333
vt 0.4375 0.3333333
vt 0.46875 0.3333333
vt 0.4375 0.4583333
vt 0.40625 0.4583333
vt 0.46875 0.4583333

# Normal
vn 0 0 -1

# Mesh description
g MapX3_mesh_0012

# Faces
f 1/1/1 2/2/1 3/3/1 4/4/1
f 5/5/1 6/6/1 7/7/1 8/8/1
f 9/6/1 10/9/1 11/10/1 12/7/1
f 13/5/1 14/6/1 15/7/1 16/8/1
f 17/6/1 18/9/1 19/10/1 20/7/1
f 21/11/1 22/12/1 23/6/1 24/5/1
f 25/12/1 26/13/1 27/9/1 28/6/1
f 29/11/1 30/12/1 31/6/1 32/5/1
f 33/12/1 34/13/1 35/9/1 36/6/1
f 37/8/1 38/7/1 39/14/1 40/15/1
f 41/7/1 42/10/1 43/16/1 44/14/1
f 45/8/1 46/7/1 47/14/1 48/15/1
f 49/7/1 50/10/1 51/16/1 52/14/1
f 53/5/1 54/6/1 55/7/1 56/8/1
f 57/6/1 58/9/1 59/10/1 60/7/1
f 61/5/1 62/6/1 63/7/1 64/8/1
f 65/6/1 66/9/1 67/10/1 68/7/1
f 69/11/1 70/12/1 71/6/1 72/5/1
f 73/12/1 74/13/1 75/9/1 76/6/1
f 77/11/1 78/12/1 79/6/1 80/5/1
f 81/12/1 82/13/1 83/9/1 84/6/1
f 85/8/1 86/7/1 87/14/1 88/15/1
f 89/7/1 90/10/1 91/16/1 92/14/1
f 93/8/1 94/7/1 95/14/1 96/15/1
f 97/7/1 98/10/1 99/16/1 100/14/1

