# Tiled2Unity generated file. Do not modify by hand.
# Wavefront file for 'Well_mesh_0016.obj'

# Vertices (Count = 456)
v -160 -128 0
v -192 -128 0
v -192 -96 0
v -160 -96 0
v -192 -128 0
v -224 -128 0
v -224 -96 0
v -192 -96 0
v -224 -128 0
v -256 -128 0
v -256 -96 0
v -224 -96 0
v -256 -128 0
v -288 -128 0
v -288 -96 0
v -256 -96 0
v -288 -128 0
v -320 -128 0
v -320 -96 0
v -288 -96 0
v -320 -128 0
v -352 -128 0
v -352 -96 0
v -320 -96 0
v -160 -160 0
v -192 -160 0
v -192 -128 0
v -160 -128 0
v -192 -160 0
v -224 -160 0
v -224 -128 0
v -192 -128 0
v -224 -160 0
v -256 -160 0
v -256 -128 0
v -224 -128 0
v -256 -160 0
v -288 -160 0
v -288 -128 0
v -256 -128 0
v -288 -160 0
v -320 -160 0
v -320 -128 0
v -288 -128 0
v -320 -160 0
v -352 -160 0
v -352 -128 0
v -320 -128 0
v -704 -160 0
v -736 -160 0
v -736 -128 0
v -704 -128 0
v -736 -160 0
v -768 -160 0
v -768 -128 0
v -736 -128 0
v -768 -160 0
v -800 -160 0
v -800 -128 0
v -768 -128 0
v -800 -160 0
v -832 -160 0
v -832 -128 0
v -800 -128 0
v -832 -160 0
v -864 -160 0
v -864 -128 0
v -832 -128 0
v -864 -160 0
v -896 -160 0
v -896 -128 0
v -864 -128 0
v -160 -192 0
v -192 -192 0
v -192 -160 0
v -160 -160 0
v -192 -192 0
v -224 -192 0
v -224 -160 0
v -192 -160 0
v -224 -192 0
v -256 -192 0
v -256 -160 0
v -224 -160 0
v -256 -192 0
v -288 -192 0
v -288 -160 0
v -256 -160 0
v -288 -192 0
v -320 -192 0
v -320 -160 0
v -288 -160 0
v -320 -192 0
v -352 -192 0
v -352 -160 0
v -320 -160 0
v -704 -192 0
v -736 -192 0
v -736 -160 0
v -704 -160 0
v -736 -192 0
v -768 -192 0
v -768 -160 0
v -736 -160 0
v -768 -192 0
v -800 -192 0
v -800 -160 0
v -768 -160 0
v -800 -192 0
v -832 -192 0
v -832 -160 0
v -800 -160 0
v -832 -192 0
v -864 -192 0
v -864 -160 0
v -832 -160 0
v -864 -192 0
v -896 -192 0
v -896 -160 0
v -864 -160 0
v -160 -224 0
v -192 -224 0
v -192 -192 0
v -160 -192 0
v -192 -224 0
v -224 -224 0
v -224 -192 0
v -192 -192 0
v -224 -224 0
v -256 -224 0
v -256 -192 0
v -224 -192 0
v -256 -224 0
v -288 -224 0
v -288 -192 0
v -256 -192 0
v -288 -224 0
v -320 -224 0
v -320 -192 0
v -288 -192 0
v -320 -224 0
v -352 -224 0
v -352 -192 0
v -320 -192 0
v -704 -224 0
v -736 -224 0
v -736 -192 0
v -704 -192 0
v -736 -224 0
v -768 -224 0
v -768 -192 0
v -736 -192 0
v -768 -224 0
v -800 -224 0
v -800 -192 0
v -768 -192 0
v -800 -224 0
v -832 -224 0
v -832 -192 0
v -800 -192 0
v -832 -224 0
v -864 -224 0
v -864 -192 0
v -832 -192 0
v -864 -224 0
v -896 -224 0
v -896 -192 0
v -864 -192 0
v -160 -256 0
v -192 -256 0
v -192 -224 0
v -160 -224 0
v -192 -256 0
v -224 -256 0
v -224 -224 0
v -192 -224 0
v -224 -256 0
v -256 -256 0
v -256 -224 0
v -224 -224 0
v -256 -256 0
v -288 -256 0
v -288 -224 0
v -256 -224 0
v -288 -256 0
v -320 -256 0
v -320 -224 0
v -288 -224 0
v -320 -256 0
v -352 -256 0
v -352 -224 0
v -320 -224 0
v -704 -256 0
v -736 -256 0
v -736 -224 0
v -704 -224 0
v -736 -256 0
v -768 -256 0
v -768 -224 0
v -736 -224 0
v -768 -256 0
v -800 -256 0
v -800 -224 0
v -768 -224 0
v -800 -256 0
v -832 -256 0
v -832 -224 0
v -800 -224 0
v -832 -256 0
v -864 -256 0
v -864 -224 0
v -832 -224 0
v -864 -256 0
v -896 -256 0
v -896 -224 0
v -864 -224 0
v -704 -288 0
v -736 -288 0
v -736 -256 0
v -704 -256 0
v -736 -288 0
v -768 -288 0
v -768 -256 0
v -736 -256 0
v -768 -288 0
v -800 -288 0
v -800 -256 0
v -768 -256 0
v -800 -288 0
v -832 -288 0
v -832 -256 0
v -800 -256 0
v -832 -288 0
v -864 -288 0
v -864 -256 0
v -832 -256 0
v -864 -288 0
v -896 -288 0
v -896 -256 0
v -864 -256 0
v -704 -320 0
v -736 -320 0
v -736 -288 0
v -704 -288 0
v -736 -320 0
v -768 -320 0
v -768 -288 0
v -736 -288 0
v -768 -320 0
v -800 -320 0
v -800 -288 0
v -768 -288 0
v -800 -320 0
v -832 -320 0
v -832 -288 0
v -800 -288 0
v -832 -320 0
v -864 -320 0
v -864 -288 0
v -832 -288 0
v -864 -320 0
v -896 -320 0
v -896 -288 0
v -864 -288 0
v -704 -352 0
v -736 -352 0
v -736 -320 0
v -704 -320 0
v -736 -352 0
v -768 -352 0
v -768 -320 0
v -736 -320 0
v -768 -352 0
v -800 -352 0
v -800 -320 0
v -768 -320 0
v -800 -352 0
v -832 -352 0
v -832 -320 0
v -800 -320 0
v -832 -352 0
v -864 -352 0
v -864 -320 0
v -832 -320 0
v -864 -352 0
v -896 -352 0
v -896 -320 0
v -864 -320 0
v -224 -448 0
v -256 -448 0
v -256 -416 0
v -224 -416 0
v -256 -448 0
v -288 -448 0
v -288 -416 0
v -256 -416 0
v -288 -448 0
v -320 -448 0
v -320 -416 0
v -288 -416 0
v -320 -448 0
v -352 -448 0
v -352 -416 0
v -320 -416 0
v -352 -448 0
v -384 -448 0
v -384 -416 0
v -352 -416 0
v -384 -448 0
v -416 -448 0
v -416 -416 0
v -384 -416 0
v -224 -480 0
v -256 -480 0
v -256 -448 0
v -224 -448 0
v -256 -480 0
v -288 -480 0
v -288 -448 0
v -256 -448 0
v -288 -480 0
v -320 -480 0
v -320 -448 0
v -288 -448 0
v -320 -480 0
v -352 -480 0
v -352 -448 0
v -320 -448 0
v -352 -480 0
v -384 -480 0
v -384 -448 0
v -352 -448 0
v -384 -480 0
v -416 -480 0
v -416 -448 0
v -384 -448 0
v -224 -512 0
v -256 -512 0
v -256 -480 0
v -224 -480 0
v -256 -512 0
v -288 -512 0
v -288 -480 0
v -256 -480 0
v -288 -512 0
v -320 -512 0
v -320 -480 0
v -288 -480 0
v -320 -512 0
v -352 -512 0
v -352 -480 0
v -320 -480 0
v -352 -512 0
v -384 -512 0
v -384 -480 0
v -352 -480 0
v -384 -512 0
v -416 -512 0
v -416 -480 0
v -384 -480 0
v -224 -544 0
v -256 -544 0
v -256 -512 0
v -224 -512 0
v -256 -544 0
v -288 -544 0
v -288 -512 0
v -256 -512 0
v -288 -544 0
v -320 -544 0
v -320 -512 0
v -288 -512 0
v -320 -544 0
v -352 -544 0
v -352 -512 0
v -320 -512 0
v -352 -544 0
v -384 -544 0
v -384 -512 0
v -352 -512 0
v -384 -544 0
v -416 -544 0
v -416 -512 0
v -384 -512 0
v -224 -576 0
v -256 -576 0
v -256 -544 0
v -224 -544 0
v -256 -576 0
v -288 -576 0
v -288 -544 0
v -256 -544 0
v -288 -576 0
v -320 -576 0
v -320 -544 0
v -288 -544 0
v -320 -576 0
v -352 -576 0
v -352 -544 0
v -320 -544 0
v -352 -576 0
v -384 -576 0
v -384 -544 0
v -352 -544 0
v -384 -576 0
v -416 -576 0
v -416 -544 0
v -384 -544 0
v -224 -608 0
v -256 -608 0
v -256 -576 0
v -224 -576 0
v -256 -608 0
v -288 -608 0
v -288 -576 0
v -256 -576 0
v -288 -608 0
v -320 -608 0
v -320 -576 0
v -288 -576 0
v -320 -608 0
v -352 -608 0
v -352 -576 0
v -320 -576 0
v -352 -608 0
v -384 -608 0
v -384 -576 0
v -352 -576 0
v -384 -608 0
v -416 -608 0
v -416 -576 0
v -384 -576 0
v -224 -640 0
v -256 -640 0
v -256 -608 0
v -224 -608 0
v -256 -640 0
v -288 -640 0
v -288 -608 0
v -256 -608 0
v -288 -640 0
v -320 -640 0
v -320 -608 0
v -288 -608 0
v -320 -640 0
v -352 -640 0
v -352 -608 0
v -320 -608 0
v -352 -640 0
v -384 -640 0
v -384 -608 0
v -352 -608 0
v -384 -640 0
v -416 -640 0
v -416 -608 0
v -384 -608 0

# Texture cooridinates (Count = 56)
vt 0.4528302 0.5992844
vt 0.490566 0.5992844
vt 0.490566 0.6565295
vt 0.4528302 0.6565295
vt 0.5283019 0.5992844
vt 0.5283019 0.6565295
vt 0.5660377 0.5992844
vt 0.5660377 0.6565295
vt 0.6037736 0.5992844
vt 0.6037736 0.6565295
vt 0.6415094 0.5992844
vt 0.6415094 0.6565295
vt 0.6792453 0.5992844
vt 0.6792453 0.6565295
vt 0.4528302 0.5420394
vt 0.490566 0.5420394
vt 0.5283019 0.5420394
vt 0.5660377 0.5420394
vt 0.6037736 0.5420394
vt 0.6415094 0.5420394
vt 0.6792453 0.5420394
vt 0.4528302 0.7137746
vt 0.490566 0.7137746
vt 0.490566 0.7710197
vt 0.4528302 0.7710197
vt 0.5283019 0.7137746
vt 0.5283019 0.7710197
vt 0.5660377 0.7137746
vt 0.5660377 0.7710197
vt 0.6037736 0.7137746
vt 0.6037736 0.7710197
vt 0.6415094 0.7137746
vt 0.6415094 0.7710197
vt 0.6792453 0.7137746
vt 0.6792453 0.7710197
vt 0.4528302 0.4847943
vt 0.490566 0.4847943
vt 0.5283019 0.4847943
vt 0.5660377 0.4847943
vt 0.6037736 0.4847943
vt 0.6415094 0.4847943
vt 0.6792453 0.4847943
vt 0.4528302 0.4275492
vt 0.490566 0.4275492
vt 0.5283019 0.4275492
vt 0.5660377 0.4275492
vt 0.6037736 0.4275492
vt 0.6415094 0.4275492
vt 0.6792453 0.4275492
vt 0.4528302 0.3703041
vt 0.490566 0.3703041
vt 0.5283019 0.3703041
vt 0.5660377 0.3703041
vt 0.6037736 0.3703041
vt 0.6415094 0.3703041
vt 0.6792453 0.3703041

# Normal
vn 0 0 -1

# Mesh description
g Well_mesh_0016

# Faces
f 1/1/1 2/2/1 3/3/1 4/4/1
f 5/2/1 6/5/1 7/6/1 8/3/1
f 9/5/1 10/7/1 11/8/1 12/6/1
f 13/7/1 14/9/1 15/10/1 16/8/1
f 17/9/1 18/11/1 19/12/1 20/10/1
f 21/11/1 22/13/1 23/14/1 24/12/1
f 25/15/1 26/16/1 27/2/1 28/1/1
f 29/16/1 30/17/1 31/5/1 32/2/1
f 33/17/1 34/18/1 35/7/1 36/5/1
f 37/18/1 38/19/1 39/9/1 40/7/1
f 41/19/1 42/20/1 43/11/1 44/9/1
f 45/20/1 46/21/1 47/13/1 48/11/1
f 49/22/1 50/23/1 51/24/1 52/25/1
f 53/23/1 54/26/1 55/27/1 56/24/1
f 57/26/1 58/28/1 59/29/1 60/27/1
f 61/28/1 62/30/1 63/31/1 64/29/1
f 65/30/1 66/32/1 67/33/1 68/31/1
f 69/32/1 70/34/1 71/35/1 72/33/1
f 73/36/1 74/37/1 75/16/1 76/15/1
f 77/37/1 78/38/1 79/17/1 80/16/1
f 81/38/1 82/39/1 83/18/1 84/17/1
f 85/39/1 86/40/1 87/19/1 88/18/1
f 89/40/1 90/41/1 91/20/1 92/19/1
f 93/41/1 94/42/1 95/21/1 96/20/1
f 97/4/1 98/3/1 99/23/1 100/22/1
f 101/3/1 102/6/1 103/26/1 104/23/1
f 105/6/1 106/8/1 107/28/1 108/26/1
f 109/8/1 110/10/1 111/30/1 112/28/1
f 113/10/1 114/12/1 115/32/1 116/30/1
f 117/12/1 118/14/1 119/34/1 120/32/1
f 121/43/1 122/44/1 123/37/1 124/36/1
f 125/44/1 126/45/1 127/38/1 128/37/1
f 129/45/1 130/46/1 131/39/1 132/38/1
f 133/46/1 134/47/1 135/40/1 136/39/1
f 137/47/1 138/48/1 139/41/1 140/40/1
f 141/48/1 142/49/1 143/42/1 144/41/1
f 145/1/1 146/2/1 147/3/1 148/4/1
f 149/2/1 150/5/1 151/6/1 152/3/1
f 153/5/1 154/7/1 155/8/1 156/6/1
f 157/7/1 158/9/1 159/10/1 160/8/1
f 161/9/1 162/11/1 163/12/1 164/10/1
f 165/11/1 166/13/1 167/14/1 168/12/1
f 169/50/1 170/51/1 171/44/1 172/43/1
f 173/51/1 174/52/1 175/45/1 176/44/1
f 177/52/1 178/53/1 179/46/1 180/45/1
f 181/53/1 182/54/1 183/47/1 184/46/1
f 185/54/1 186/55/1 187/48/1 188/47/1
f 189/55/1 190/56/1 191/49/1 192/48/1
f 193/15/1 194/16/1 195/2/1 196/1/1
f 197/16/1 198/17/1 199/5/1 200/2/1
f 201/17/1 202/18/1 203/7/1 204/5/1
f 205/18/1 206/19/1 207/9/1 208/7/1
f 209/19/1 210/20/1 211/11/1 212/9/1
f 213/20/1 214/21/1 215/13/1 216/11/1
f 217/36/1 218/37/1 219/16/1 220/15/1
f 221/37/1 222/38/1 223/17/1 224/16/1
f 225/38/1 226/39/1 227/18/1 228/17/1
f 229/39/1 230/40/1 231/19/1 232/18/1
f 233/40/1 234/41/1 235/20/1 236/19/1
f 237/41/1 238/42/1 239/21/1 240/20/1
f 241/43/1 242/44/1 243/37/1 244/36/1
f 245/44/1 246/45/1 247/38/1 248/37/1
f 249/45/1 250/46/1 251/39/1 252/38/1
f 253/46/1 254/47/1 255/40/1 256/39/1
f 257/47/1 258/48/1 259/41/1 260/40/1
f 261/48/1 262/49/1 263/42/1 264/41/1
f 265/50/1 266/51/1 267/44/1 268/43/1
f 269/51/1 270/52/1 271/45/1 272/44/1
f 273/52/1 274/53/1 275/46/1 276/45/1
f 277/53/1 278/54/1 279/47/1 280/46/1
f 281/54/1 282/55/1 283/48/1 284/47/1
f 285/55/1 286/56/1 287/49/1 288/48/1
f 289/22/1 290/23/1 291/24/1 292/25/1
f 293/23/1 294/26/1 295/27/1 296/24/1
f 297/26/1 298/28/1 299/29/1 300/27/1
f 301/28/1 302/30/1 303/31/1 304/29/1
f 305/30/1 306/32/1 307/33/1 308/31/1
f 309/32/1 310/34/1 311/35/1 312/33/1
f 313/4/1 314/3/1 315/23/1 316/22/1
f 317/3/1 318/6/1 319/26/1 320/23/1
f 321/6/1 322/8/1 323/28/1 324/26/1
f 325/8/1 326/10/1 327/30/1 328/28/1
f 329/10/1 330/12/1 331/32/1 332/30/1
f 333/12/1 334/14/1 335/34/1 336/32/1
f 337/1/1 338/2/1 339/3/1 340/4/1
f 341/2/1 342/5/1 343/6/1 344/3/1
f 345/5/1 346/7/1 347/8/1 348/6/1
f 349/7/1 350/9/1 351/10/1 352/8/1
f 353/9/1 354/11/1 355/12/1 356/10/1
f 357/11/1 358/13/1 359/14/1 360/12/1
f 361/15/1 362/16/1 363/2/1 364/1/1
f 365/16/1 366/17/1 367/5/1 368/2/1
f 369/17/1 370/18/1 371/7/1 372/5/1
f 373/18/1 374/19/1 375/9/1 376/7/1
f 377/19/1 378/20/1 379/11/1 380/9/1
f 381/20/1 382/21/1 383/13/1 384/11/1
f 385/36/1 386/37/1 387/16/1 388/15/1
f 389/37/1 390/38/1 391/17/1 392/16/1
f 393/38/1 394/39/1 395/18/1 396/17/1
f 397/39/1 398/40/1 399/19/1 400/18/1
f 401/40/1 402/41/1 403/20/1 404/19/1
f 405/41/1 406/42/1 407/21/1 408/20/1
f 409/43/1 410/44/1 411/37/1 412/36/1
f 413/44/1 414/45/1 415/38/1 416/37/1
f 417/45/1 418/46/1 419/39/1 420/38/1
f 421/46/1 422/47/1 423/40/1 424/39/1
f 425/47/1 426/48/1 427/41/1 428/40/1
f 429/48/1 430/49/1 431/42/1 432/41/1
f 433/50/1 434/51/1 435/44/1 436/43/1
f 437/51/1 438/52/1 439/45/1 440/44/1
f 441/52/1 442/53/1 443/46/1 444/45/1
f 445/53/1 446/54/1 447/47/1 448/46/1
f 449/54/1 450/55/1 451/48/1 452/47/1
f 453/55/1 454/56/1 455/49/1 456/48/1

