# Tiled2Unity generated file. Do not modify by hand.
# Wavefront file for 'Well_mesh_0006.obj'

# Vertices (Count = 76)
v -640 -544 0
v -672 -544 0
v -672 -512 0
v -640 -512 0
v -1280 -544 0
v -1312 -544 0
v -1312 -512 0
v -1280 -512 0
v -640 -576 0
v -672 -576 0
v -672 -544 0
v -640 -544 0
v -896 -576 0
v -928 -576 0
v -928 -544 0
v -896 -544 0
v -1280 -576 0
v -1312 -576 0
v -1312 -544 0
v -1280 -544 0
v -640 -608 0
v -672 -608 0
v -672 -576 0
v -640 -576 0
v -896 -608 0
v -928 -608 0
v -928 -576 0
v -896 -576 0
v -1280 -608 0
v -1312 -608 0
v -1312 -576 0
v -1280 -576 0
v -640 -640 0
v -672 -640 0
v -672 -608 0
v -640 -608 0
v -896 -640 0
v -928 -640 0
v -928 -608 0
v -896 -608 0
v -832 -672 0
v -864 -672 0
v -864 -640 0
v -832 -640 0
v -832 -704 0
v -864 -704 0
v -864 -672 0
v -832 -672 0
v -832 -736 0
v -864 -736 0
v -864 -704 0
v -832 -704 0
v -832 -768 0
v -864 -768 0
v -864 -736 0
v -832 -736 0
v -832 -800 0
v -864 -800 0
v -864 -768 0
v -832 -768 0
v -832 -928 0
v -864 -928 0
v -864 -896 0
v -832 -896 0
v -832 -960 0
v -864 -960 0
v -864 -928 0
v -832 -928 0
v -832 -992 0
v -864 -992 0
v -864 -960 0
v -832 -960 0
v -832 -1024 0
v -864 -1024 0
v -864 -992 0
v -832 -992 0

# Texture cooridinates (Count = 12)
vt 0.09375 0.375
vt 0.125 0.375
vt 0.125 0.4166667
vt 0.09375 0.4166667
vt 0.09375 0.2916667
vt 0.125 0.2916667
vt 0.125 0.3333333
vt 0.09375 0.3333333
vt 0.21875 0.25
vt 0.25 0.25
vt 0.25 0.2916667
vt 0.21875 0.2916667

# Normal
vn 0 0 -1

# Mesh description
g Well_mesh_0006

# Faces
f 1/1/1 2/2/1 3/3/1 4/4/1
f 5/1/1 6/2/1 7/3/1 8/4/1
f 9/5/1 10/6/1 11/7/1 12/8/1
f 13/5/1 14/6/1 15/7/1 16/8/1
f 17/5/1 18/6/1 19/7/1 20/8/1
f 21/5/1 22/6/1 23/7/1 24/8/1
f 25/5/1 26/6/1 27/7/1 28/8/1
f 29/5/1 30/6/1 31/7/1 32/8/1
f 33/5/1 34/6/1 35/7/1 36/8/1
f 37/9/1 38/10/1 39/11/1 40/12/1
f 41/5/1 42/6/1 43/7/1 44/8/1
f 45/5/1 46/6/1 47/7/1 48/8/1
f 49/5/1 50/6/1 51/7/1 52/8/1
f 53/5/1 54/6/1 55/7/1 56/8/1
f 57/9/1 58/10/1 59/11/1 60/12/1
f 61/1/1 62/2/1 63/3/1 64/4/1
f 65/5/1 66/6/1 67/7/1 68/8/1
f 69/5/1 70/6/1 71/7/1 72/8/1
f 73/5/1 74/6/1 75/7/1 76/8/1

