# Tiled2Unity generated file. Do not modify by hand.
# Wavefront file for 'Well_mesh_0008.obj'

# Vertices (Count = 64)
v -768 -576 0
v -800 -576 0
v -800 -544 0
v -768 -544 0
v -608 -608 0
v -640 -608 0
v -640 -576 0
v -608 -576 0
v -1248 -608 0
v -1280 -608 0
v -1280 -576 0
v -1248 -576 0
v -832 -640 0
v -864 -640 0
v -864 -608 0
v -832 -608 0
v -864 -640 0
v -896 -640 0
v -896 -608 0
v -864 -608 0
v -640 -672 0
v -672 -672 0
v -672 -640 0
v -640 -640 0
v -768 -672 0
v -800 -672 0
v -800 -640 0
v -768 -640 0
v -608 -704 0
v -640 -704 0
v -640 -672 0
v -608 -672 0
v -640 -704 0
v -672 -704 0
v -672 -672 0
v -640 -672 0
v -704 -704 0
v -736 -704 0
v -736 -672 0
v -704 -672 0
v -736 -704 0
v -768 -704 0
v -768 -672 0
v -736 -672 0
v -800 -800 0
v -832 -800 0
v -832 -768 0
v -800 -768 0
v -1472 -928 0
v -1504 -928 0
v -1504 -896 0
v -1472 -896 0
v -1408 -960 0
v -1440 -960 0
v -1440 -928 0
v -1408 -928 0
v -736 -1024 0
v -768 -1024 0
v -768 -992 0
v -736 -992 0
v -1504 -1024 0
v -1536 -1024 0
v -1536 -992 0
v -1504 -992 0

# Texture cooridinates (Count = 13)
vt 0.0625 0.4166667
vt 0.09375 0.4166667
vt 0.09375 0.4583333
vt 0.0625 0.4583333
vt 0.125 0.4166667
vt 0.125 0.4583333
vt 0.0625 0.25
vt 0.09375 0.25
vt 0.09375 0.2916667
vt 0.0625 0.2916667
vt 0.125 0.5
vt 0.09375 0.5
vt 0.0625 0.5

# Normal
vn 0 0 -1

# Mesh description
g Well_mesh_0008

# Faces
f 1/1/1 2/2/1 3/3/1 4/4/1
f 5/1/1 6/2/1 7/3/1 8/4/1
f 9/1/1 10/2/1 11/3/1 12/4/1
f 13/2/1 14/5/1 15/6/1 16/3/1
f 17/7/1 18/8/1 19/9/1 20/10/1
f 21/3/1 22/6/1 23/11/1 24/12/1
f 25/4/1 26/3/1 27/12/1 28/13/1
f 29/4/1 30/3/1 31/12/1 32/13/1
f 33/2/1 34/5/1 35/6/1 36/3/1
f 37/7/1 38/8/1 39/9/1 40/10/1
f 41/1/1 42/2/1 43/3/1 44/4/1
f 45/7/1 46/8/1 47/9/1 48/10/1
f 49/4/1 50/3/1 51/12/1 52/13/1
f 53/1/1 54/2/1 55/3/1 56/4/1
f 57/4/1 58/3/1 59/12/1 60/13/1
f 61/1/1 62/2/1 63/3/1 64/4/1

